<svg width="20" height="19" viewBox="0 0 20 19" fill="none" xmlns="http://www.w3.org/2000/svg">
<g filter="url(#filter0_b_149_63)">
<path d="M18.7203 6.73953L12.9433 5.89855L10.3608 0.654402C10.2903 0.51082 10.1742 0.394587 10.0309 0.323936C9.67138 0.146168 9.23451 0.294308 9.05476 0.654402L6.47227 5.89855L0.695214 6.73953C0.535942 6.76232 0.390321 6.83753 0.27883 6.95148C0.144043 7.09024 0.0697698 7.27693 0.0723297 7.47052C0.0748895 7.66411 0.154073 7.84876 0.292482 7.9839L4.47226 12.0657L3.48476 17.8295C3.46161 17.9636 3.47642 18.1015 3.52752 18.2275C3.57862 18.3536 3.66397 18.4628 3.77389 18.5428C3.8838 18.6228 4.01388 18.6703 4.14939 18.6799C4.28489 18.6896 4.42039 18.6611 4.54051 18.5975L9.70778 15.8763L14.875 18.5975C15.0161 18.6728 15.1799 18.6978 15.3369 18.6705C15.7328 18.6021 15.9991 18.2261 15.9308 17.8295L14.9433 12.0657L19.1231 7.9839C19.2368 7.87223 19.3119 7.72636 19.3347 7.56683C19.3961 7.16799 19.1185 6.79878 18.7203 6.73953Z" fill="url(#paint0_linear_149_63)"/>
<path d="M3.48476 17.8295L4.47226 12.0657L0.292482 7.9839C0.154073 7.84876 0.0748895 7.66411 0.0723297 7.47052C0.0697698 7.27693 0.144043 7.09024 0.27883 6.95148M3.48476 17.8295L0.710061 7.37185M3.48476 17.8295L3.48479 17.8295L3.48476 17.8295ZM0.27883 6.95148L0.709287 7.37263C0.709544 7.37237 0.709803 7.37211 0.710061 7.37185M0.27883 6.95148C0.390321 6.83753 0.535942 6.76232 0.695214 6.73953L0.27883 6.95148ZM0.710061 7.37185C0.686936 7.39606 0.674045 7.42862 0.674494 7.46256C0.674947 7.49686 0.688984 7.52937 0.713196 7.55301L0.713235 7.55305L4.89301 11.6349L5.11922 11.8558L5.06582 12.1674L4.07833 17.9312L4.0782 17.932C4.07416 17.9554 4.07675 17.9794 4.08563 18.0013C4.09452 18.0232 4.10929 18.0421 4.12816 18.0558C4.14702 18.0695 4.16924 18.0776 4.19229 18.0793C4.21534 18.0809 4.23844 18.0761 4.25897 18.0652L4.2599 18.0647L9.42717 15.3435L9.70778 15.1957L9.98839 15.3435L15.1557 18.0647L15.1584 18.0661C15.1786 18.0769 15.206 18.082 15.2336 18.0772L15.2345 18.077C15.3034 18.0651 15.3491 18 15.3373 17.9317L15.3372 17.9312L14.3497 12.1674L14.2963 11.8558L14.5226 11.6349L18.7012 7.55414C18.7013 7.55401 18.7015 7.55388 18.7016 7.55375C18.7225 7.53308 18.7348 7.50784 18.7385 7.4818L18.7394 7.47514L18.7395 7.47515C18.7491 7.41249 18.7061 7.34655 18.6322 7.33527C18.6321 7.33524 18.6319 7.33521 18.6317 7.33518L12.8565 6.49448L12.543 6.44884L12.403 6.1646L9.82054 0.920454L9.82028 0.919932C9.80829 0.89553 9.78862 0.875927 9.76464 0.864106L9.76394 0.863761C9.70438 0.83431 9.62703 0.857518 9.59402 0.922495C9.59387 0.922785 9.59372 0.923075 9.59358 0.923366L7.01253 6.1646L6.87255 6.44884L6.55902 6.49448L0.781966 7.33546L0.780517 7.33567C0.755366 7.33927 0.730613 7.35117 0.710061 7.37185Z" stroke="url(#paint1_linear_149_63)" stroke-width="1.20443"/>
</g>
<defs>
<filter id="filter0_b_149_63" x="-5.72106" y="-5.54461" width="30.8572" height="30.0197" filterUnits="userSpaceOnUse" color-interpolation-filters="sRGB">
<feFlood flood-opacity="0" result="BackgroundImageFix"/>
<feGaussianBlur in="BackgroundImageFix" stdDeviation="2.89666"/>
<feComposite in2="SourceAlpha" operator="in" result="effect1_backgroundBlur_149_63"/>
<feBlend mode="normal" in="SourceGraphic" in2="effect1_backgroundBlur_149_63" result="shape"/>
</filter>
<linearGradient id="paint0_linear_149_63" x1="-0.694192" y1="19.7989" x2="22.4906" y2="6.38822" gradientUnits="userSpaceOnUse">
<stop stop-color="#F3BE00"/>
<stop offset="1" stop-color="#FBEC65"/>
</linearGradient>
<linearGradient id="paint1_linear_149_63" x1="3.13988" y1="2.39619" x2="14.7777" y2="17.4651" gradientUnits="userSpaceOnUse">
<stop stop-color="white" stop-opacity="0.25"/>
<stop offset="1" stop-color="white" stop-opacity="0"/>
</linearGradient>
</defs>
</svg>
